<?xml version="1.0" encoding="UTF-8"?>
<svg id="Ebene_1" data-name="Ebene 1" xmlns="http://www.w3.org/2000/svg" viewBox="0 0 509.21 88.6">
  <defs>
    <style>
      .cls-1 {
        fill: #fff;
      }
    </style>
  </defs>
  <g>
    <path class="cls-1" d="m26.31,22.99v24.2h3.03v.96h-11.8v-.96h3.4v-24.05l-7.62,25.01h-.74l-7.47-25.12v21.83c.07,2.04.07,2.29,2.26,2.33h1.04v.96H.74v-.96h1.11c1.92-.04,1.96-.67,2.03-2.37v-21.83H.74v-.96h9.69l4.59,16.61,5.11-16.61h9.21v.96h-3.03Z"/>
    <path class="cls-1" d="m41.11,32.69c2.11,0,4.55.04,7.36-.11v14.61h2.44v.96h-7.14v-2.37c-1.44,1.52-2.77,2.81-5.92,2.81-4.59,0-4.55-2.92-4.55-5.33v-9.62h-2.41v-.96c2.41,0,4.37.04,7.1-.11v11.51c.07,1.18.15,2.81,1.96,2.81.52,0,1-.15,1.55-.48,2.26-1.33,2.26-3.63,2.26-5.22v-7.55h-2.66v-.96Z"/>
    <path class="cls-1" d="m63.68,36.8h-1.04c-.26-.96-.48-1.81-1.55-2.63-.74-.56-1.81-.89-2.74-.89-1.55,0-2.63,1.04-2.63,2.18,0,.56.26,1.15.7,1.52.33.3,1.55.74,2.59,1l1.11.3c1.78.52,4.62,1.33,4.62,4.74,0,2.44-1.66,5.59-5.7,5.59-1.7,0-3.03-.74-3.26-.89-.59-.33-.92-.56-1.18-.56-.67,0-.63.74-.59,1h-1.07v-5.62h1.07c.22,1.18.44,2.55,1.7,3.7.92.89,2.22,1.37,3.44,1.37,1.92,0,3.15-1.18,3.15-2.37,0-1.96-2.66-2.29-4.18-2.74-2.37-.78-5-1.63-5-5.25,0-2.44,1.48-4.99,4.96-4.99,1.29,0,2.29.37,2.92.7.37.22.55.3.85.3.67,0,.7-.37.78-1.18h1.04v4.74Z"/>
    <path class="cls-1" d="m78.29,38.35h-5.62l.04-2c.15-1.48.37-3.26,2.96-3.26,2.4,0,2.52,1.81,2.63,3.11v2.15Zm3.77,5.11c-.93,1.48-2.48,4-5.62,4-3.7,0-3.81-3.7-3.85-5.11-.04-1,0-1.96,0-2.92h10.58c-.26-1.67-.52-3.29-2-4.88-1.41-1.52-3.44-2.29-5.51-2.29-4.81,0-8.18,3.51-8.18,8.14s3.22,8.21,8.47,8.21c4.48,0,6.18-3.07,7.03-4.7l-.92-.44Z"/>
    <path class="cls-1" d="m94.5,32.69c2.11,0,4.55.04,7.36-.11v14.61h2.44v.96h-7.14v-2.37c-1.44,1.52-2.78,2.81-5.92,2.81-4.59,0-4.55-2.92-4.55-5.33v-9.62h-2.4v-.96c2.4,0,4.37.04,7.1-.11v11.51c.07,1.18.15,2.81,1.96,2.81.52,0,1-.15,1.55-.48,2.26-1.33,2.26-3.63,2.26-5.22v-7.55h-2.66v-.96Z"/>
    <path class="cls-1" d="m105.56,32.69c4.22,0,4.99-.07,7.07-.33v2.7c1.07-1.26,2.44-2.85,5.33-2.85,3.33,0,4.26,1.63,5.11,3.22.56-.92,1.96-3.18,5.55-3.18,4.88,0,4.92,3.26,5.03,5.25v9.69h2.29v.96h-8.92v-.96h2.04v-9.58c0-1.89,0-3.7-2.11-3.7-.81,0-1.7.41-2.44,1.11-1.37,1.33-1.44,3-1.44,4.96v7.21h2.22v.96h-8.69v-.96h2v-9.4c0-2.11-.22-3.85-2.22-3.85-1.11,0-2.07.59-2.7,1.33-.89,1.11-.96,2.33-1.07,4.07v7.84h2.29v.96h-9.32v-.96h2.44v-13.54h-2.44v-.96Z"/>
    <path class="cls-1" d="m148.74,36.8h-1.04c-.26-.96-.48-1.81-1.55-2.63-.74-.56-1.81-.89-2.74-.89-1.55,0-2.63,1.04-2.63,2.18,0,.56.26,1.15.7,1.52.33.3,1.55.74,2.59,1l1.11.3c1.78.52,4.62,1.33,4.62,4.74,0,2.44-1.67,5.59-5.7,5.59-1.7,0-3.03-.74-3.26-.89-.59-.33-.92-.56-1.18-.56-.67,0-.63.74-.59,1h-1.07v-5.62h1.07c.22,1.18.44,2.55,1.7,3.7.93.89,2.22,1.37,3.44,1.37,1.92,0,3.14-1.18,3.14-2.37,0-1.96-2.66-2.29-4.18-2.74-2.37-.78-5-1.63-5-5.25,0-2.44,1.48-4.99,4.96-4.99,1.29,0,2.29.37,2.92.7.37.22.56.3.85.3.67,0,.7-.37.78-1.18h1.04v4.74Z"/>
    <path class="cls-1" d="m163.46,36.8h-1.04c-.26-.96-.48-1.81-1.55-2.63-.74-.56-1.81-.89-2.74-.89-1.55,0-2.63,1.04-2.63,2.18,0,.56.26,1.15.7,1.52.33.3,1.55.74,2.59,1l1.11.3c1.78.52,4.62,1.33,4.62,4.74,0,2.44-1.66,5.59-5.7,5.59-1.7,0-3.03-.74-3.26-.89-.59-.33-.93-.56-1.18-.56-.67,0-.63.74-.59,1h-1.07v-5.62h1.07c.22,1.18.44,2.55,1.7,3.7.92.89,2.22,1.37,3.44,1.37,1.92,0,3.15-1.18,3.15-2.37,0-1.96-2.66-2.29-4.18-2.74-2.37-.78-4.99-1.63-4.99-5.25,0-2.44,1.48-4.99,4.96-4.99,1.29,0,2.29.37,2.92.7.37.22.56.3.85.3.67,0,.7-.37.78-1.18h1.04v4.74Z"/>
    <path class="cls-1" d="m173.49,26.47v6.22h3.22v.96h-3.22v10.73c0,.89.04,2.26,1.29,2.26,1.11,0,1.7-1.22,2.15-2.7l1.04.22c-.52,1.78-1.41,4.44-5.25,4.44s-3.77-2.74-3.77-4.37l.07-10.58h-2.66v-.59c1.67-.78,3.96-1.92,6.1-6.59h1.04Z"/>
    <path class="cls-1" d="m183.33,23.22c1.48,0,2.66,1.18,2.66,2.66s-1.18,2.66-2.66,2.66-2.66-1.18-2.66-2.66,1.18-2.66,2.66-2.66Zm-4.33,10.43v-.96c1.67,0,2.55-.04,3.52-.07.92-.07,1.89-.15,3.63-.26v14.84h2.37v.96h-9.51v-.96h2.52v-13.54h-2.52Z"/>
    <path class="cls-1" d="m192.47,31.25c.04-1.7.04-3.29.96-5.14,1.63-3.26,4.77-4.22,6.4-4.22,1.26,0,3.63.63,3.63,2.96,0,1.7-1.52,2.11-2.07,2.11-.96,0-1.96-.74-1.96-1.74,0-.3.07-.7.41-1.04.15-.15.48-.56.48-.67,0-.22-.3-.63-1.04-.63s-1.44.48-1.78,1.11c-.3.55-.33,1.26-.33,2.66v6.03h3.55v.96h-3.55v13.54h3v.96h-10.18v-.96h2.48v-13.54h-2.85v-.96h2.85v-1.44Z"/>
    <path class="cls-1" d="m209.16,26.47v6.22h3.22v.96h-3.22v10.73c0,.89.04,2.26,1.29,2.26,1.11,0,1.7-1.22,2.15-2.7l1.04.22c-.52,1.78-1.41,4.44-5.25,4.44s-3.77-2.74-3.77-4.37l.07-10.58h-2.66v-.59c1.67-.78,3.96-1.92,6.1-6.59h1.04Z"/>
    <path class="cls-1" d="m224.55,32.69c2.11,0,4.55.04,7.36-.11v14.61h2.44v.96h-7.14v-2.37c-1.44,1.52-2.77,2.81-5.92,2.81-4.59,0-4.55-2.92-4.55-5.33v-9.62h-2.41v-.96c2.41,0,4.37.04,7.1-.11v11.51c.07,1.18.15,2.81,1.96,2.81.52,0,1-.15,1.55-.48,2.26-1.33,2.26-3.63,2.26-5.22v-7.55h-2.66v-.96Z"/>
    <path class="cls-1" d="m235.5,32.69c2.26,0,4.4-.22,7.14-.33v2.74c.81-.96,1.44-1.67,2.96-2.29,1.11-.44,2.07-.55,2.81-.55.26,0,1.11,0,2.11.3,3,.85,3,3.14,3,4.77v9.88h2.44v.96h-9.1v-.96h2.07v-9.18c0-2.07,0-4.07-2.26-4.07-1.29,0-3.37,1.26-3.88,3.37-.15.63-.15,1.29-.15,3v6.88h2.37v.96h-9.51v-.96h2.52v-13.54h-2.52v-.96Z"/>
    <path class="cls-1" d="m263.21,37.98c0-2.63,0-4.85,2.52-4.85.33,0,1.48,0,2.07,1.22.37.81.37,1.63.37,3.77,0,2.63,0,4.77-2.41,4.77s-2.55-2-2.55-4.92Zm-1.44,8.77c-1.22,0-2.29-.04-2.29-1.22s1.44-1.96,2.59-2.4c.78.37,1.78.85,3.77.85,3.74,0,6.88-2.03,6.88-5.99,0-1.26-.41-1.96-.81-2.7.11-.52.22-.7.41-.7s.22,0,.52.37c.22.3.63.48,1.07.48,1.07,0,1.59-.81,1.59-1.66,0-1.07-.81-1.7-1.74-1.7-.48,0-1.04.19-1.48.52-.7.52-.89,1.22-1.07,1.78-1.04-.89-2.44-2.11-5.33-2.11-3.37,0-7.14,1.89-7.14,5.92,0,2.48,1.55,3.7,2.52,4.48-.89.3-3.77,1.33-3.77,4.7,0,.56.07,1.59,1,2.55.7.78,1.26.93,2.04,1.07-1.04.37-3,1.04-3,3.11,0,2.29,2.74,4.7,8.07,4.7s8.84-2.52,8.84-6.99c0-1.15-.19-2.11-.92-3.14-1.33-1.92-2.7-1.89-5.37-1.89h-6.36Zm8.21,4.51c.78,0,2.63-.04,2.63,2.04,0,2.29-2.63,4.29-7.03,4.29-4.07,0-5.48-2.11-5.48-3.77,0-1.22.59-1.85,1.26-2.55h8.62Z"/>
    <path class="cls-1" d="m299.66,22.99c1.18,0,2.81.07,3.88,1.52.7.96.89,2.44.89,4.48,0,3.18-.92,4.51-1.48,4.92-1.04.78-2.55.96-3.18.96h-3.4v-11.88h3.29Zm1.74,12.95c1.96,0,4.4-.19,6.33-1.59,2.44-1.78,2.55-4.29,2.55-5.22,0-2.11-.89-4.22-2.59-5.51-2-1.48-4.4-1.52-6.44-1.59h-13.5v.96h3.15v24.2h-3.15v.96h12.1v-.96h-3.48v-11.25h5.03Z"/>
    <path class="cls-1" d="m321.46,40.13c.04,3.63.04,7.7-3.63,7.7-1.63,0-2.63-.96-3.07-1.85-.3-.52-.67-1.29-.67-5.7,0-3.26.07-7.1,3.7-7.1,1.48,0,2.59.7,3.18,2.04.22.48.44,1,.48,4.92Zm5.03-.04c-.37-5.85-5.29-7.84-8.66-7.84-3.77,0-8.88,2.37-8.88,8.1,0,4.14,3.03,8.21,8.99,8.21,5.36,0,7.58-3.59,8.1-5.03.41-1.07.52-2.29.44-3.44Z"/>
    <path class="cls-1" d="m340.07,36.8h-1.04c-.26-.96-.48-1.81-1.55-2.63-.74-.56-1.81-.89-2.74-.89-1.55,0-2.63,1.04-2.63,2.18,0,.56.26,1.15.7,1.52.33.3,1.55.74,2.59,1l1.11.3c1.78.52,4.62,1.33,4.62,4.74,0,2.44-1.66,5.59-5.7,5.59-1.7,0-3.03-.74-3.26-.89-.59-.33-.92-.56-1.18-.56-.67,0-.63.74-.59,1h-1.07v-5.62h1.07c.22,1.18.44,2.55,1.7,3.7.93.89,2.22,1.37,3.44,1.37,1.92,0,3.14-1.18,3.14-2.37,0-1.96-2.66-2.29-4.18-2.74-2.37-.78-5-1.63-5-5.25,0-2.44,1.48-4.99,4.96-4.99,1.29,0,2.29.37,2.92.7.37.22.56.3.85.3.67,0,.7-.37.78-1.18h1.04v4.74Z"/>
    <path class="cls-1" d="m350.1,26.47v6.22h3.22v.96h-3.22v10.73c0,.89.04,2.26,1.29,2.26,1.11,0,1.7-1.22,2.15-2.7l1.04.22c-.52,1.78-1.41,4.44-5.25,4.44s-3.77-2.74-3.77-4.37l.07-10.58h-2.66v-.59c1.66-.78,3.96-1.92,6.1-6.59h1.04Z"/>
    <path class="cls-1" d="m10.21,72.69c2.11,0,4.55.04,7.36-.11v14.62h2.44v.96h-7.14v-2.37c-1.44,1.52-2.77,2.81-5.92,2.81-4.59,0-4.55-2.92-4.55-5.33v-9.62H0v-.96c2.4,0,4.37.04,7.1-.11v11.51c.07,1.18.15,2.81,1.96,2.81.52,0,1-.15,1.55-.48,2.26-1.33,2.26-3.63,2.26-5.22v-7.55h-2.66v-.96Z"/>
    <path class="cls-1" d="m21.16,72.69c2.26,0,4.4-.22,7.14-.33v2.74c.81-.96,1.44-1.67,2.96-2.29,1.11-.44,2.07-.56,2.81-.56.26,0,1.11,0,2.11.3,3,.85,3,3.15,3,4.77v9.88h2.44v.96h-9.1v-.96h2.07v-9.18c0-2.07,0-4.07-2.26-4.07-1.29,0-3.37,1.26-3.89,3.37-.15.63-.15,1.29-.15,3v6.88h2.37v.96h-9.51v-.96h2.52v-13.54h-2.52v-.96Z"/>
    <path class="cls-1" d="m55.39,79.94c.04,3.26-.26,4.14-.44,4.59-.55,1.48-2,2.85-3.4,2.85-2.52,0-2.89-3.11-3.07-4.74-.07-.74-.11-1.52-.11-2.26,0-3.77.63-6.88,3.26-6.88,1.18,0,2.48.93,3.11,2.22.44.85.63,2,.67,4.22Zm-.15-16.8v11.51c-.74-.89-2.03-2.41-4.74-2.41-3.07,0-7.07,2.66-7.07,8.36,0,5.37,3.74,7.18,4.4,7.47.89.37,1.89.52,2.85.52,2.74,0,3.7-1.52,4.55-2.78v2.33h7.14v-.96h-2.44v-25.38c-1.78.18-2.77.3-4.66.3h-2.48v1.04h2.44Z"/>
    <path class="cls-1" d="m92.46,87.19v.96h-12.69v-.96h3.63v-24.09c-2.85-.07-4.48,0-6.03,1.59-1.59,1.7-1.85,3.85-2,5.4h-1.11l.55-8.07h22.68l.7,8.07h-1.11c-.15-1.37-.37-3.22-1.67-4.92-1.55-2-3.26-2.11-6.55-2.07v24.09h3.59Z"/>
    <path class="cls-1" d="m106.23,78.35h-5.62l.04-2c.15-1.48.37-3.26,2.96-3.26,2.4,0,2.52,1.81,2.63,3.11v2.15Zm3.77,5.11c-.92,1.48-2.48,4-5.62,4-3.7,0-3.81-3.7-3.85-5.11-.04-1,0-1.96,0-2.92h10.58c-.26-1.67-.52-3.29-2-4.88-1.41-1.52-3.44-2.29-5.51-2.29-4.81,0-8.18,3.52-8.18,8.14s3.22,8.21,8.47,8.21c4.48,0,6.18-3.07,7.03-4.7l-.93-.44Z"/>
    <path class="cls-1" d="m112.45,62.22c.7,0,1.92,0,3.26-.04s2.81-.15,4-.37v25.38h2.44v.96h-9.69v-.96h2.59v-23.94h-2.59v-1.04Z"/>
    <path class="cls-1" d="m134.91,78.35h-5.62l.04-2c.15-1.48.37-3.26,2.96-3.26,2.4,0,2.52,1.81,2.63,3.11v2.15Zm3.77,5.11c-.92,1.48-2.48,4-5.62,4-3.7,0-3.81-3.7-3.85-5.11-.04-1,0-1.96,0-2.92h10.58c-.26-1.67-.52-3.29-2-4.88-1.41-1.52-3.44-2.29-5.51-2.29-4.81,0-8.18,3.52-8.18,8.14s3.22,8.21,8.47,8.21c4.48,0,6.18-3.07,7.03-4.7l-.93-.44Z"/>
    <path class="cls-1" d="m140.98,62.18c1.11,0,2.29,0,3.51-.07,1.22-.04,2.48-.15,3.81-.3v25.38h2.18v.96h-9.25v-.96h2.37v-24.01h-2.63v-1Zm12.8,12.8c.3-.26.56-.52.56-.85,0-.44-.33-.44-1.18-.48h-1.67v-.96h7.73v.96l-1.07.04c-.85.07-1.33.11-2.74,1.26l-2.89,2.63,7.03,9.62h1.85v.96h-9.51v-.96h2.07l-5.4-7.33,4.59-4.25.63-.63Z"/>
    <path class="cls-1" d="m175.2,80.12c.04,3.63.04,7.7-3.63,7.7-1.63,0-2.63-.96-3.07-1.85-.3-.52-.67-1.29-.67-5.7,0-3.26.07-7.1,3.7-7.1,1.48,0,2.59.7,3.18,2.04.22.48.44,1,.48,4.92Zm5.03-.04c-.37-5.85-5.29-7.84-8.66-7.84-3.77,0-8.88,2.37-8.88,8.1,0,4.14,3.03,8.21,8.99,8.21,5.37,0,7.58-3.59,8.1-5.03.41-1.07.52-2.29.44-3.44Z"/>
    <path class="cls-1" d="m182.3,72.69c4.22,0,5-.07,7.07-.33v2.7c1.07-1.26,2.44-2.85,5.33-2.85,3.33,0,4.25,1.63,5.11,3.22.55-.93,1.96-3.18,5.55-3.18,4.88,0,4.92,3.26,5.03,5.25v9.69h2.29v.96h-8.92v-.96h2.03v-9.58c0-1.89,0-3.7-2.11-3.7-.81,0-1.7.41-2.44,1.11-1.37,1.33-1.44,3-1.44,4.96v7.21h2.22v.96h-8.7v-.96h2v-9.4c0-2.11-.22-3.85-2.22-3.85-1.11,0-2.07.59-2.7,1.33-.89,1.11-.96,2.33-1.07,4.07v7.84h2.29v.96h-9.32v-.96h2.44v-13.54h-2.44v-.96Z"/>
    <path class="cls-1" d="m213.98,72.69c4.22,0,4.99-.07,7.07-.33v2.7c1.07-1.26,2.44-2.85,5.33-2.85,3.33,0,4.25,1.63,5.11,3.22.56-.93,1.96-3.18,5.55-3.18,4.88,0,4.92,3.26,5.03,5.25v9.69h2.29v.96h-8.92v-.96h2.04v-9.58c0-1.89,0-3.7-2.11-3.7-.81,0-1.7.41-2.44,1.11-1.37,1.33-1.44,3-1.44,4.96v7.21h2.22v.96h-8.7v-.96h2v-9.4c0-2.11-.22-3.85-2.22-3.85-1.11,0-2.07.59-2.7,1.33-.89,1.11-.96,2.33-1.07,4.07v7.84h2.29v.96h-9.32v-.96h2.44v-13.54h-2.44v-.96Z"/>
    <path class="cls-1" d="m255.45,72.69c2.11,0,4.55.04,7.36-.11v14.62h2.44v.96h-7.14v-2.37c-1.44,1.52-2.77,2.81-5.92,2.81-4.59,0-4.55-2.92-4.55-5.33v-9.62h-2.41v-.96c2.41,0,4.37.04,7.1-.11v11.51c.07,1.18.15,2.81,1.96,2.81.52,0,1-.15,1.55-.48,2.26-1.33,2.26-3.63,2.26-5.22v-7.55h-2.66v-.96Z"/>
    <path class="cls-1" d="m266.4,72.69c2.26,0,4.4-.22,7.14-.33v2.74c.81-.96,1.44-1.67,2.96-2.29,1.11-.44,2.07-.56,2.81-.56.26,0,1.11,0,2.11.3,3,.85,3,3.15,3,4.77v9.88h2.44v.96h-9.1v-.96h2.07v-9.18c0-2.07,0-4.07-2.26-4.07-1.29,0-3.37,1.26-3.88,3.37-.15.63-.15,1.29-.15,3v6.88h2.37v.96h-9.51v-.96h2.52v-13.54h-2.52v-.96Z"/>
    <path class="cls-1" d="m292.42,63.22c1.48,0,2.66,1.18,2.66,2.66s-1.18,2.66-2.66,2.66-2.66-1.18-2.66-2.66,1.18-2.66,2.66-2.66Zm-4.33,10.43v-.96c1.66,0,2.55-.04,3.52-.07.92-.07,1.89-.15,3.63-.26v14.84h2.37v.96h-9.51v-.96h2.52v-13.54h-2.52Z"/>
    <path class="cls-1" d="m298.71,62.18c1.11,0,2.29,0,3.51-.07,1.22-.04,2.48-.15,3.81-.3v25.38h2.18v.96h-9.25v-.96h2.37v-24.01h-2.63v-1Zm12.8,12.8c.3-.26.55-.52.55-.85,0-.44-.33-.44-1.18-.48h-1.67v-.96h7.73v.96l-1.07.04c-.85.07-1.33.11-2.74,1.26l-2.89,2.63,7.03,9.62h1.85v.96h-9.51v-.96h2.07l-5.4-7.33,4.59-4.25.63-.63Z"/>
    <path class="cls-1" d="m329.82,82.83c0,.96.04,2.11-1.04,3-.44.33-1,.59-1.63.59-1.29,0-2.52-1-2.52-2.85,0-3.29,3.22-3.48,5.18-3.59v2.85Zm0-3.88c-2.29.22-5.33.48-7.4,2-1.63,1.18-2.15,2.7-2.15,3.88s.56,3.74,4.37,3.74c2.89,0,4.44-1.7,5.18-2.55.48.96,1.29,2.55,3.4,2.55,1.81,0,2.96-1.15,3.63-1.85l-.59-.81c-.3.22-.67.55-1.11.55-.89,0-.92-1.07-.92-1.92v-7.44c0-1.3.04-3.11-2.48-4.18-1.07-.44-2.37-.67-3.7-.67-3.59,0-6.47,1.66-6.47,4.03,0,1.18.85,2.04,2.07,2.04s2.11-.96,2.11-2.07c0-.26-.07-.52-.19-.74-.11-.3-.33-.52-.44-.81-.07-.15-.11-.26-.11-.41,0-.33.55-1.07,2.22-1.07,2.48,0,2.59,1.26,2.59,2.81v2.92Z"/>
    <path class="cls-1" d="m344.51,66.47v6.22h3.22v.96h-3.22v10.73c0,.89.04,2.26,1.29,2.26,1.11,0,1.7-1.22,2.15-2.7l1.04.22c-.52,1.78-1.41,4.44-5.25,4.44s-3.77-2.74-3.77-4.37l.07-10.58h-2.66v-.59c1.66-.78,3.96-1.92,6.11-6.59h1.04Z"/>
    <path class="cls-1" d="m354.35,63.22c1.48,0,2.66,1.18,2.66,2.66s-1.18,2.66-2.66,2.66-2.66-1.18-2.66-2.66,1.18-2.66,2.66-2.66Zm-4.33,10.43v-.96c1.66,0,2.55-.04,3.51-.07.92-.07,1.89-.15,3.63-.26v14.84h2.37v.96h-9.51v-.96h2.52v-13.54h-2.52Z"/>
    <path class="cls-1" d="m374,80.12c.04,3.63.04,7.7-3.63,7.7-1.63,0-2.63-.96-3.07-1.85-.3-.52-.67-1.29-.67-5.7,0-3.26.07-7.1,3.7-7.1,1.48,0,2.59.7,3.18,2.04.22.48.44,1,.48,4.92Zm5.03-.04c-.37-5.85-5.29-7.84-8.66-7.84-3.77,0-8.88,2.37-8.88,8.1,0,4.14,3.03,8.21,8.99,8.21,5.37,0,7.58-3.59,8.1-5.03.41-1.07.52-2.29.44-3.44Z"/>
    <path class="cls-1" d="m380.99,72.69c2.26,0,4.4-.22,7.14-.33v2.74c.81-.96,1.44-1.67,2.96-2.29,1.11-.44,2.07-.56,2.81-.56.26,0,1.11,0,2.11.3,3,.85,3,3.15,3,4.77v9.88h2.44v.96h-9.1v-.96h2.07v-9.18c0-2.07,0-4.07-2.26-4.07-1.29,0-3.37,1.26-3.88,3.37-.15.63-.15,1.29-.15,3v6.88h2.37v.96h-9.51v-.96h2.52v-13.54h-2.52v-.96Z"/>
  </g>
  <g>
    <polygon class="cls-1" points="421.05 88.15 421.05 22.03 454.11 55.1 487.17 22.03 487.17 88.15 421.05 88.15"/>
    <polygon class="cls-1" points="487.17 22.03 487.17 0 509.21 0 498.19 11.02 509.21 22.03 487.17 22.03"/>
    <path class="cls-1" d="m432.07,16.53v5.5h-11.02V0s13.77,0,13.77,0c4.57,0,8.27,3.7,8.27,8.26s-3.7,8.26-8.27,8.26h-2.75Z"/>
  </g>
</svg>