<?xml version="1.0" encoding="UTF-8"?>
<svg id="OBJECTS" xmlns="http://www.w3.org/2000/svg" viewBox="0 0 391 391">
  <defs>
    <style>
      .cls-1 {
        fill: #fff;
      }

      .cls-2 {
        isolation: isolate;
        opacity: .22;
      }

      .cls-3 {
        opacity: 0;
      }
    </style>
  </defs>
  <rect class="cls-3" width="391" height="391"/>
  <g>
    <path class="cls-2" d="m254.49,195.51c0,32.39-26.24,58.65-58.62,58.65s-58.65-26.26-58.65-58.65,26.26-58.62,58.65-58.62,58.62,26.26,58.62,58.62h0Z"/>
    <path class="cls-1" d="m195.68,130.95c-35.66,0-64.57,28.91-64.57,64.58s28.91,64.56,64.57,64.56,64.57-28.91,64.57-64.56-28.91-64.58-64.57-64.58Zm.18,114.43c-27.53,0-49.86-22.32-49.86-49.86s22.32-49.86,49.86-49.86,49.86,22.32,49.86,49.86-22.32,49.86-49.86,49.86Z"/>
    <g>
      <path class="cls-1" d="m181.71,170.28v48.28h-13.11v-36.21h-.28l-10.56,6.32v-11.13l11.88-7.26h12.07Z"/>
      <path class="cls-1" d="m212.64,219.87c-4.38-.02-8.17-1.03-11.36-3.04s-5.65-4.91-7.38-8.7c-1.73-3.79-2.59-8.33-2.57-13.63.02-5.31.88-9.82,2.6-13.53,1.72-3.71,4.17-6.53,7.35-8.46,3.18-1.93,6.97-2.9,11.35-2.9s8.17.97,11.36,2.91c3.19,1.94,5.65,4.77,7.38,8.47,1.73,3.71,2.58,8.21,2.57,13.51,0,5.33-.86,9.89-2.59,13.67-1.73,3.79-4.18,6.68-7.37,8.69s-6.97,3.01-11.35,3.01Zm0-10.66c2.26,0,4.12-1.18,5.58-3.55,1.45-2.37,2.17-6.09,2.16-11.16,0-3.32-.33-6.03-.99-8.13-.66-2.11-1.57-3.67-2.73-4.68s-2.5-1.52-4.01-1.52c-2.26,0-4.11,1.15-5.54,3.44-1.43,2.29-2.16,5.92-2.19,10.89-.02,3.38.31,6.16.97,8.33.66,2.18,1.58,3.78,2.75,4.82,1.17,1.04,2.51,1.56,4.02,1.56Z"/>
    </g>
  </g>
</svg>