<?xml version="1.0" encoding="UTF-8"?>
<svg id="OBJECTS" xmlns="http://www.w3.org/2000/svg" viewBox="0 0 391 391">
  <defs>
    <style>
      .cls-1 {
        fill: #fff;
      }

      .cls-2 {
        isolation: isolate;
        opacity: .22;
      }

      .cls-3 {
        opacity: 0;
      }
    </style>
  </defs>
  <rect class="cls-3" width="391" height="391"/>
  <g>
    <path class="cls-2" d="m254.49,195.51c0,32.39-26.24,58.65-58.62,58.65s-58.65-26.26-58.65-58.65,26.26-58.62,58.65-58.62,58.62,26.26,58.62,58.62h0Z"/>
    <path class="cls-1" d="m195.68,130.95c-35.66,0-64.57,28.91-64.57,64.58s28.91,64.56,64.57,64.56,64.57-28.91,64.57-64.56-28.91-64.58-64.57-64.58Zm.18,114.43c-27.53,0-49.86-22.32-49.86-49.86s22.32-49.86,49.86-49.86,49.86,22.32,49.86,49.86-22.32,49.86-49.86,49.86Z"/>
    <g>
      <path class="cls-1" d="m184.49,170.28v48.28h-13.11v-36.21h-.28l-10.56,6.32v-11.13l11.88-7.26h12.07Z"/>
      <path class="cls-1" d="m194.39,218.55v-9.43l18.01-14.9c1.19-.99,2.22-1.92,3.08-2.79.86-.87,1.52-1.77,1.98-2.7.46-.93.7-1.96.7-3.09,0-1.24-.26-2.3-.79-3.18-.53-.88-1.25-1.56-2.18-2.04-.93-.48-2-.72-3.21-.72s-2.27.24-3.19.73c-.92.49-1.63,1.2-2.13,2.15-.5.94-.75,2.09-.75,3.44h-12.45c0-3.39.76-6.32,2.29-8.77,1.52-2.45,3.68-4.34,6.46-5.66,2.78-1.32,6.04-1.98,9.78-1.98s7.22.62,10.05,1.85c2.84,1.23,5.03,2.97,6.58,5.2s2.32,4.85,2.32,7.85c0,1.85-.39,3.7-1.16,5.53-.77,1.83-2.15,3.85-4.15,6.07-2,2.22-4.83,4.86-8.51,7.92l-4.53,3.77v.28h18.86v10.47h-37.06Z"/>
    </g>
  </g>
</svg>