<?xml version="1.0" encoding="UTF-8"?>
<svg id="OBJECTS" xmlns="http://www.w3.org/2000/svg" viewBox="0 0 391 391">
  <defs>
    <style>
      .cls-1 {
        fill: #fff;
      }

      .cls-2 {
        isolation: isolate;
        opacity: .22;
      }

      .cls-3 {
        opacity: 0;
      }
    </style>
  </defs>
  <rect class="cls-3" width="391" height="391"/>
  <g>
    <path class="cls-2" d="m254.49,195.51c0,32.39-26.24,58.65-58.62,58.65s-58.65-26.26-58.65-58.65,26.26-58.62,58.65-58.62,58.62,26.26,58.62,58.62h0Z"/>
    <path class="cls-1" d="m195.68,130.95c-35.66,0-64.57,28.91-64.57,64.58s28.91,64.56,64.57,64.56,64.57-28.91,64.57-64.56-28.91-64.58-64.57-64.58Zm.18,114.43c-27.53,0-49.86-22.32-49.86-49.86s22.32-49.86,49.86-49.86,49.86,22.32,49.86,49.86-22.32,49.86-49.86,49.86Z"/>
    <g>
      <path class="cls-1" d="m183.74,170.28v48.28h-13.11v-36.21h-.28l-10.56,6.32v-11.13l11.88-7.26h12.07Z"/>
      <path class="cls-1" d="m212.97,219.21c-3.71,0-7-.66-9.87-1.97-2.87-1.31-5.12-3.12-6.77-5.43-1.64-2.31-2.48-4.97-2.51-7.97h12.73c.05,1.67.7,2.99,1.95,3.98s2.74,1.48,4.47,1.48c1.34,0,2.51-.29,3.54-.86,1.02-.57,1.82-1.39,2.4-2.44s.86-2.28.85-3.68c.02-1.41-.27-2.64-.85-3.69-.58-1.04-1.38-1.85-2.4-2.43-1.02-.57-2.2-.86-3.54-.86s-2.66.33-3.83,1c-1.17.67-2.03,1.59-2.58,2.77l-11.5-2.26,1.89-26.59h32.44v10.47h-21.69l-.94,10.66h.28c.75-1.46,2.06-2.68,3.91-3.64,1.85-.97,4.01-1.45,6.46-1.45,2.88,0,5.44.67,7.7,2,2.25,1.34,4.04,3.18,5.35,5.53s1.96,5.06,1.95,8.12c.02,3.36-.78,6.35-2.39,8.95-1.61,2.6-3.87,4.64-6.78,6.11-2.91,1.47-6.33,2.2-10.25,2.2Z"/>
    </g>
  </g>
</svg>