<?xml version="1.0" encoding="UTF-8"?>
<svg id="OBJECTS" xmlns="http://www.w3.org/2000/svg" viewBox="0 0 391 391">
  <defs>
    <style>
      .cls-1 {
        fill: #fff;
      }

      .cls-2 {
        isolation: isolate;
        opacity: .22;
      }

      .cls-3 {
        opacity: 0;
      }
    </style>
  </defs>
  <rect class="cls-3" width="391" height="391"/>
  <g>
    <path class="cls-2" d="m254.49,195.51c0,32.39-26.24,58.65-58.62,58.65s-58.65-26.26-58.65-58.65,26.26-58.62,58.65-58.62,58.62,26.26,58.62,58.62h0Z"/>
    <path class="cls-1" d="m195.68,130.95c-35.66,0-64.57,28.91-64.57,64.58s28.91,64.56,64.57,64.56,64.57-28.91,64.57-64.56-28.91-64.58-64.57-64.58Zm.18,114.43c-27.53,0-49.86-22.32-49.86-49.86s22.32-49.86,49.86-49.86,49.86,22.32,49.86,49.86-22.32,49.86-49.86,49.86Z"/>
    <path class="cls-1" d="m195.52,219.21c-3.8,0-7.18-.66-10.12-1.97-2.95-1.31-5.26-3.12-6.94-5.43-1.68-2.31-2.53-4.97-2.55-7.97h13.2c.02.93.3,1.76.86,2.49.56.73,1.32,1.3,2.3,1.71.97.41,2.09.61,3.35.61s2.28-.22,3.21-.65c.93-.43,1.65-1.03,2.17-1.8.52-.77.77-1.65.75-2.64.02-.97-.28-1.84-.88-2.59-.61-.75-1.45-1.34-2.53-1.77-1.08-.42-2.33-.64-3.75-.64h-4.9v-9.05h4.9c1.3,0,2.46-.21,3.45-.64,1-.42,1.78-1.01,2.33-1.77.56-.75.83-1.62.81-2.59.01-.94-.21-1.78-.68-2.5-.47-.72-1.13-1.29-1.97-1.7-.84-.41-1.81-.61-2.91-.61-1.19,0-2.26.21-3.19.64-.94.42-1.67,1.01-2.2,1.77-.53.75-.81,1.62-.83,2.59h-12.54c.02-2.95.83-5.56,2.44-7.83,1.61-2.26,3.82-4.04,6.64-5.33,2.81-1.29,6.04-1.93,9.69-1.93s6.72.61,9.46,1.82c2.74,1.21,4.89,2.87,6.44,4.99,1.55,2.11,2.31,4.53,2.3,7.25.03,2.7-.89,4.92-2.77,6.65-1.88,1.73-4.25,2.75-7.13,3.06v.38c3.9.42,6.83,1.61,8.79,3.57,1.96,1.96,2.93,4.41,2.9,7.37.02,2.83-.83,5.34-2.53,7.52s-4.07,3.9-7.1,5.14-6.51,1.86-10.46,1.86Z"/>
  </g>
</svg>