<?xml version="1.0" encoding="UTF-8"?>
<svg id="OBJECTS" xmlns="http://www.w3.org/2000/svg" viewBox="0 0 391 391">
  <defs>
    <style>
      .cls-1 {
        fill: #fff;
      }

      .cls-2 {
        isolation: isolate;
        opacity: .22;
      }

      .cls-3 {
        opacity: 0;
      }
    </style>
  </defs>
  <rect class="cls-3" width="391" height="391"/>
  <g>
    <path class="cls-2" d="m254.49,195.51c0,32.39-26.24,58.65-58.62,58.65s-58.65-26.26-58.65-58.65,26.26-58.62,58.65-58.62,58.62,26.26,58.62,58.62h0Z"/>
    <path class="cls-1" d="m195.68,130.95c-35.66,0-64.57,28.91-64.57,64.58s28.91,64.56,64.57,64.56,64.57-28.91,64.57-64.56-28.91-64.58-64.57-64.58Zm.18,114.43c-27.53,0-49.86-22.32-49.86-49.86s22.32-49.86,49.86-49.86,49.86,22.32,49.86,49.86-22.32,49.86-49.86,49.86Z"/>
    <path class="cls-1" d="m196.51,219.21c-2.81,0-5.48-.44-8-1.33-2.52-.89-4.76-2.29-6.71-4.21-1.95-1.92-3.48-4.42-4.58-7.5s-1.65-6.81-1.64-11.2c.02-3.91.52-7.43,1.52-10.56,1-3.13,2.42-5.79,4.27-7.99,1.85-2.2,4.06-3.88,6.64-5.06,2.58-1.17,5.45-1.76,8.6-1.76,3.55,0,6.68.68,9.38,2.05s4.86,3.19,6.47,5.48c1.61,2.29,2.55,4.8,2.82,7.55h-12.92c-.3-1.37-.99-2.37-2.06-3.01-1.08-.64-2.31-.95-3.69-.95-2.75,0-4.77,1.19-6.05,3.58-1.28,2.39-1.94,5.53-1.97,9.43h.28c.61-1.48,1.54-2.74,2.78-3.8,1.24-1.05,2.69-1.86,4.34-2.43,1.65-.57,3.39-.85,5.23-.85,2.92,0,5.48.66,7.67,1.98,2.19,1.32,3.9,3.13,5.13,5.42,1.23,2.29,1.83,4.92,1.82,7.87.02,3.46-.8,6.48-2.44,9.08-1.64,2.59-3.92,4.6-6.83,6.03-2.91,1.43-6.26,2.15-10.06,2.15Zm-.09-9.9c1.3,0,2.46-.3,3.48-.9,1.01-.6,1.81-1.41,2.38-2.45.57-1.04.85-2.22.84-3.54.02-1.34-.26-2.52-.84-3.55-.57-1.03-1.37-1.84-2.38-2.44-1.01-.6-2.17-.9-3.48-.9-.96,0-1.84.17-2.65.51-.81.34-1.51.82-2.11,1.44-.6.62-1.06,1.35-1.4,2.19s-.51,1.76-.53,2.75c.02,1.32.31,2.5.9,3.54s1.38,1.85,2.38,2.45c1.01.6,2.15.9,3.42.9Z"/>
  </g>
</svg>