<?xml version="1.0" encoding="UTF-8"?>
<svg id="OBJECTS" xmlns="http://www.w3.org/2000/svg" viewBox="0 0 391 391">
  <defs>
    <style>
      .cls-1 {
        fill: #fff;
      }

      .cls-2 {
        isolation: isolate;
        opacity: .22;
      }

      .cls-3 {
        opacity: 0;
      }
    </style>
  </defs>
  <rect class="cls-3" width="391" height="391"/>
  <g>
    <path class="cls-2" d="m254.49,195.51c0,32.39-26.24,58.65-58.62,58.65s-58.65-26.26-58.65-58.65,26.26-58.62,58.65-58.62,58.62,26.26,58.62,58.62h0Z"/>
    <path class="cls-1" d="m195.68,130.95c-35.66,0-64.57,28.91-64.57,64.58s28.91,64.56,64.57,64.56,64.57-28.91,64.57-64.56-28.91-64.58-64.57-64.58Zm.18,114.43c-27.53,0-49.86-22.32-49.86-49.86s22.32-49.86,49.86-49.86,49.86,22.32,49.86,49.86-22.32,49.86-49.86,49.86Z"/>
    <path class="cls-1" d="m180.96,218.55l18.95-37.53v-.28h-22.25v-10.47h35.83v10.47l-19.05,37.81h-13.48Z"/>
  </g>
</svg>