<?xml version="1.0" encoding="UTF-8"?>
<svg id="OBJECTS" xmlns="http://www.w3.org/2000/svg" viewBox="0 0 391 391">
  <defs>
    <style>
      .cls-1 {
        fill: #fff;
      }

      .cls-2 {
        isolation: isolate;
        opacity: .22;
      }

      .cls-3 {
        opacity: 0;
      }
    </style>
  </defs>
  <rect class="cls-3" width="391" height="391"/>
  <g>
    <path class="cls-2" d="m254.49,195.51c0,32.39-26.24,58.65-58.62,58.65s-58.65-26.26-58.65-58.65,26.26-58.62,58.65-58.62,58.62,26.26,58.62,58.62h0Z"/>
    <path class="cls-1" d="m195.68,130.95c-35.66,0-64.57,28.91-64.57,64.58s28.91,64.56,64.57,64.56,64.57-28.91,64.57-64.56-28.91-64.58-64.57-64.58Zm.18,114.43c-27.53,0-49.86-22.32-49.86-49.86s22.32-49.86,49.86-49.86,49.86,22.32,49.86,49.86-22.32,49.86-49.86,49.86Z"/>
    <path class="cls-1" d="m195.85,219.21c-3.9,0-7.37-.61-10.43-1.82s-5.46-2.85-7.21-4.93-2.63-4.42-2.63-7.02c0-2,.5-3.82,1.5-5.47,1-1.65,2.35-3.02,4.04-4.11,1.7-1.09,3.59-1.79,5.68-2.11v-.38c-2.75-.47-5.01-1.69-6.78-3.67-1.77-1.97-2.65-4.3-2.65-6.99,0-2.53.8-4.78,2.4-6.75,1.6-1.97,3.8-3.52,6.58-4.66,2.78-1.13,5.95-1.7,9.5-1.7s6.72.57,9.5,1.71c2.78,1.14,4.97,2.7,6.58,4.67,1.6,1.97,2.4,4.22,2.4,6.73,0,2.7-.9,5.04-2.69,7-1.79,1.96-4.04,3.18-6.74,3.65v.38c2.07.31,3.96,1.02,5.66,2.11,1.7,1.09,3.05,2.46,4.05,4.11,1.01,1.65,1.51,3.47,1.51,5.47,0,2.61-.88,4.95-2.63,7.02-1.75,2.07-4.16,3.72-7.21,4.93s-6.53,1.82-10.43,1.82Zm0-9.05c1.24,0,2.34-.25,3.3-.75.96-.5,1.72-1.2,2.27-2.09s.84-1.89.84-3.01-.28-2.11-.84-2.97c-.56-.86-1.32-1.54-2.27-2.04-.96-.5-2.06-.74-3.3-.74s-2.32.25-3.29.74c-.97.5-1.73,1.18-2.29,2.04-.56.87-.84,1.86-.84,2.97s.28,2.11.84,2.99c.56.88,1.32,1.58,2.29,2.09.97.51,2.06.77,3.29.77Zm0-20.65c1.1,0,2.07-.23,2.92-.68.85-.46,1.52-1.08,2-1.89.49-.8.73-1.71.73-2.71s-.24-1.9-.73-2.67c-.49-.78-1.15-1.39-2-1.84-.85-.45-1.82-.67-2.92-.67s-2.05.22-2.91.67c-.86.45-1.53,1.06-2.02,1.84-.49.78-.73,1.67-.73,2.67s.24,1.91.73,2.7c.49.79,1.16,1.42,2.02,1.89.86.46,1.83.7,2.91.7Z"/>
  </g>
</svg>