<?xml version="1.0" encoding="UTF-8"?>
<svg id="OBJECTS" xmlns="http://www.w3.org/2000/svg" viewBox="0 0 391 391">
  <defs>
    <style>
      .cls-1 {
        fill: #fff;
      }

      .cls-2 {
        isolation: isolate;
        opacity: .22;
      }

      .cls-3 {
        opacity: 0;
      }
    </style>
  </defs>
  <rect class="cls-3" width="391" height="391"/>
  <g>
    <path class="cls-2" d="m254.49,195.51c0,32.39-26.24,58.65-58.62,58.65s-58.65-26.26-58.65-58.65,26.26-58.62,58.65-58.62,58.62,26.26,58.62,58.62h0Z"/>
    <path class="cls-1" d="m195.68,130.95c-35.66,0-64.57,28.91-64.57,64.58s28.91,64.56,64.57,64.56,64.57-28.91,64.57-64.56-28.91-64.58-64.57-64.58Zm.18,114.43c-27.53,0-49.86-22.32-49.86-49.86s22.32-49.86,49.86-49.86,49.86,22.32,49.86,49.86-22.32,49.86-49.86,49.86Z"/>
    <path class="cls-1" d="m195.19,169.62c2.81,0,5.48.44,7.99,1.33,2.52.89,4.74,2.28,6.68,4.18s3.46,4.38,4.57,7.44c1.11,3.06,1.67,6.75,1.69,11.09.02,3.96-.48,7.52-1.47,10.67-1,3.15-2.42,5.83-4.27,8.05-1.85,2.22-4.06,3.91-6.65,5.08-2.59,1.17-5.46,1.76-8.64,1.76-3.57,0-6.7-.68-9.41-2.05s-4.86-3.21-6.46-5.52c-1.6-2.31-2.54-4.88-2.81-7.71h12.92c.31,1.46,1.01,2.52,2.07,3.17,1.07.65,2.29.98,3.68.98,2.77,0,4.79-1.2,6.07-3.59,1.28-2.4,1.93-5.6,1.94-9.61h-.28c-.61,1.48-1.54,2.74-2.78,3.8s-2.69,1.86-4.34,2.43c-1.65.57-3.39.85-5.23.85-2.91,0-5.45-.66-7.64-1.97-2.18-1.31-3.89-3.11-5.12-5.4-1.23-2.29-1.85-4.89-1.86-7.82-.02-3.43.79-6.43,2.43-9,1.63-2.58,3.91-4.58,6.81-6.01s6.27-2.15,10.09-2.15Zm.09,9.9c-1.3,0-2.46.3-3.48.9-1.01.6-1.81,1.41-2.38,2.43s-.85,2.18-.84,3.47c.02,1.29.31,2.44.88,3.46s1.36,1.83,2.36,2.43c1,.6,2.15.9,3.45.9.96,0,1.85-.17,2.66-.51s1.53-.82,2.13-1.44c.61-.62,1.08-1.34,1.41-2.17.34-.82.5-1.72.48-2.67-.02-1.29-.31-2.44-.9-3.47s-1.38-1.83-2.38-2.43-2.14-.9-3.42-.9Z"/>
  </g>
</svg>